<?xml version="1.0" encoding="UTF-8" standalone="no"?>
<!-- Created with Inkscape (http://www.inkscape.org/) -->

<svg
   width="52mm"
   height="52.000008mm"
   viewBox="0 0 52 52.000008"
   version="1.1"
   id="svg1"
   xml:space="preserve"
   xmlns="http://www.w3.org/2000/svg"
   xmlns:svg="http://www.w3.org/2000/svg"><defs
     id="defs1" /><g
     id="layer1"
     transform="translate(85.504915,-86.330419)"><g
       id="g3"><rect
         style="fill:#ffffff;fill-opacity:0;stroke-width:4.99999"
         id="rect2"
         width="52"
         height="52"
         x="-85.504913"
         y="86.330421" /><g
         id="g2"
         transform="translate(-129.8939,-36.094625)"><path
           id="path1"
           style="fill:#0038a7;fill-opacity:1;stroke:none;stroke-width:5.18226"
           d="m 71.475224,123.55008 a 24.875,24.875 0 0 0 -24.874968,24.87497 24.875,24.875 0 0 0 24.874968,24.87497 24.875,24.875 0 0 0 22.70249,-14.74432 24.15,24.045664 0 0 1 -21.681881,13.5356 24.15,24.045664 0 0 1 -24.149947,-24.04556 24.15,24.045664 0 0 1 24.149947,-24.04556 24.15,24.045664 0 0 1 10.88254,2.58796 24.875,24.875 0 0 0 -11.903149,-3.03806 z" /><path
           id="path2"
           style="fill:#0038a7;fill-opacity:1;stroke:none;stroke-width:13.4473"
           d="m 66.840365,125.79697 a 23,23 0 0 0 -17.37,22.25291 23,23 0 0 0 23.000147,23.00014 23,23 0 0 0 4.105692,-0.41547 23.752508,23.10862 0 0 1 -2.255159,0.15709 23.752508,23.10862 0 0 1 -23.752555,-23.10866 23.752508,23.10862 0 0 1 16.271875,-21.88601 z" /><path
           style="font-weight:bold;font-size:13.4408px;font-family:Arial;-inkscape-font-specification:'Arial Bold';letter-spacing:0px;fill:#0038a7;fill-opacity:1;stroke-width:5"
           d="m 54.053806,154.11087 v -13.13763 c 0.461875,-1.43541 1.180562,-3.03142 1.942616,-4.24188 v 17.26767 c 1.052374,2.51276 3.036883,5.9007 4.830287,7.40275 v 2.49461 c -3.604429,-2.95056 -5.545397,-6.21561 -6.772903,-9.78552 z m 16.829691,14.19865 c -1.11989,-0.19367 -1.412725,-0.24542 -2.109127,-0.42803 l -1.680873,-19.79344 h -2.25 l -1.549141,17.52025 c -0.888762,-0.55213 -1.391864,-0.87033 -2.060747,-1.39233 l 3.74741,-35.63857 c 0.529155,-0.26349 1.373317,-0.60153 2.054185,-0.84675 z m -4.04,-21.84251 -0.858356,-16.69199 -0.941644,16.69199 z m 5.184359,21.98224 c 6.2e-4,-0.61337 -0.0079,-38.73674 0,-39.86636 -2.064174,0.21235 -2.854857,0.48 -2.854857,0.48 v -1.95855 c 1.033574,-0.25507 4.100925,-0.88186 7.645767,-0.37225 v 1.9608 c 0,0 -1.873604,-0.34419 -2.848294,-0.28 v 40.12914 c -0.735916,-0.006 -1.387983,-0.0293 -1.942616,-0.0928 z m 5.515256,-0.20825 v -41.39789 c 2.464023,0.35398 5.489904,1.61249 7.133862,2.61574 v 2.20404 c 0,0 -2.726158,-1.81607 -5.191247,-2.25 V 146.492 h 4.830288 v 1.62103 h -4.830288 v 17.62986 c 0,0 3.778359,-1.41903 5.375008,-2.46 v 2.2326 c -1.734681,1.03973 -3.879435,2.10837 -7.317623,2.72551 z m 7.987037,-3.14743 3.288008,-17.76152 -2.979552,-17.13495 c 0.522612,0.36078 1.541855,1.10808 2.27076,1.79099 l 1.929489,12.77616 1.890113,-8.15618 c 0.463379,0.72467 0.926885,1.61011 1.443697,2.82844 l -2.185304,7.96773 2.185304,8.24336 c -0.419313,1.01546 -0.58141,1.32191 -1.240247,2.48764 l -2.13294,-8.37235 -2.139502,13.55577 c -0.980388,0.88322 -1.420165,1.14775 -2.329826,1.77491 z"
           id="text6-1"
           aria-label="LATEX" /></g></g></g></svg>
